<?xml version="1.0" encoding="UTF-8" standalone="no"?>
<!DOCTYPE svg PUBLIC "-//W3C//DTD SVG 1.0//EN" "http://www.w3.org/TR/2001/PR-SVG-20010719/DTD/svg10.dtd">
<svg width="41cm" height="20cm" viewBox="46 20 805 391" xmlns="http://www.w3.org/2000/svg" xmlns:xlink="http://www.w3.org/1999/xlink">
  <g>
    <rect style="fill: #b3b3b3" x="46.661" y="50" width="110.186" height="82.6398"/>
    <rect style="fill: none; fill-opacity:0; stroke-width: 1; stroke: #000000" x="46.661" y="50" width="110.186" height="82.6398"/>
    <rect style="fill: #000000" x="58.5979" y="61.9369" width="86.3127" height="56.9297"/>
    <polygon style="fill: #b3b3b3" points="61.5821,132.64 118.282,132.64 118.282,145.495 64.5663,145.495 "/>
    <polygon style="fill: none; fill-opacity:0; stroke-width: 1; stroke: #000000" points="61.5821,132.64 118.282,132.64 118.282,145.495 64.5663,145.495 "/>
    <polygon style="fill: #b3b3b3" points="118.282,132.64 141.926,132.64 138.942,145.495 118.282,145.495 "/>
    <polygon style="fill: none; fill-opacity:0; stroke-width: 1; stroke: #000000" points="118.282,132.64 141.926,132.64 138.942,145.495 118.282,145.495 "/>
    <rect style="fill: #ffffff" x="122.139" y="136.496" width="5.14203" height="5.14203"/>
    <rect style="fill: none; fill-opacity:0; stroke-width: 0.5; stroke: #000000" x="122.139" y="136.496" width="5.14203" height="5.14203"/>
    <polygon style="fill: #b3b3b3" points="90.7356,145.495 112.773,145.495 112.773,151.922 123.792,151.922 123.792,158.35 79.7169,158.35 79.7169,151.922 90.7356,151.922 "/>
    <polygon style="fill: none; fill-opacity:0; stroke-width: 1; stroke: #000000" points="90.7356,145.495 112.773,145.495 112.773,151.922 123.792,151.922 123.792,158.35 79.7169,158.35 79.7169,151.922 90.7356,151.922 "/>
    <text font-size="12.8" style="fill: #000000;text-anchor:middle;font-family:sans-serif;font-style:normal;font-weight:normal" x="101.754" y="174.023">
      <tspan x="101.754" y="174.023"></tspan>
    </text>
  </g>
  <g>
    <g>
      <polygon style="fill: #ffffff" points="577.5,80 758.5,80 849,224 487,224 "/>
      <polygon style="fill: none; fill-opacity:0; stroke-width: 2; stroke: #000000" points="577.5,80 758.5,80 849,224 487,224 "/>
      <polygon style="fill: none; fill-opacity:0; stroke-width: 2; stroke: #000000" points="577.5,80 758.5,80 849,224 487,224 "/>
    </g>
    <g>
      <rect style="fill: #b3b3b3" x="560.653" y="21" width="66.1543" height="154.36"/>
      <rect style="fill: none; fill-opacity:0; stroke-width: 1.6; stroke: #000000" x="560.653" y="21" width="66.1543" height="154.36"/>
      <rect style="fill: none; fill-opacity:0; stroke-width: 0.2; stroke: #000000" x="567.268" y="30.2616" width="52.9234" height="17.6411"/>
      <rect style="fill: none; fill-opacity:0; stroke-width: 0.2; stroke: #000000" x="567.268" y="47.9028" width="52.9234" height="17.6411"/>
      <rect style="fill: none; fill-opacity:0; stroke-width: 0.2; stroke: #000000" x="567.268" y="65.5439" width="52.9234" height="17.6411"/>
      <rect style="fill: none; fill-opacity:0; stroke-width: 0.2; stroke: #000000" x="567.268" y="83.185" width="52.9234" height="17.6411"/>
      <rect style="fill: none; fill-opacity:0; stroke-width: 0.2; stroke: #000000" x="567.268" y="104.354" width="33.0772" height="10.5847"/>
      <ellipse style="fill: #00ff00" cx="616.884" cy="106.119" rx="2.3154" ry="2.3154"/>
      <ellipse style="fill: none; fill-opacity:0; stroke-width: 0.2; stroke: #000000" cx="616.884" cy="106.119" rx="2.3154" ry="2.3154"/>
      <ellipse style="fill: #ffff00" cx="616.884" cy="113.175" rx="2.3154" ry="2.3154"/>
      <ellipse style="fill: none; fill-opacity:0; stroke-width: 0.2; stroke: #000000" cx="616.884" cy="113.175" rx="2.3154" ry="2.3154"/>
      <rect style="fill: #ffffff" x="603.653" y="107.883" width="7.93852" height="7.05646"/>
      <rect style="fill: none; fill-opacity:0; stroke-width: 0.2; stroke: #000000" x="603.653" y="107.883" width="7.93852" height="7.05646"/>
      <path style="fill: none; fill-opacity:0; stroke-width: 0.2; stroke: #000000" d="M 571.679 129.052 L 571.679,167.642"/>
      <path style="fill: none; fill-opacity:0; stroke-width: 0.2; stroke: #000000" d="M 582.704 129.052 L 582.704,167.642"/>
      <path style="fill: none; fill-opacity:0; stroke-width: 0.2; stroke: #000000" d="M 593.73 129.052 L 593.73,167.642"/>
      <path style="fill: none; fill-opacity:0; stroke-width: 0.2; stroke: #000000" d="M 604.756 129.052 L 604.756,167.642"/>
      <path style="fill: none; fill-opacity:0; stroke-width: 0.2; stroke: #000000" d="M 615.781 129.052 L 615.781,167.642"/>
      <path style="fill: none; fill-opacity:0; stroke-width: 0.2; stroke: #000000" d="M 626.807 129.052 L 626.807,167.642"/>
      <polygon style="fill: #999999" points="547.422,188.591 560.653,162.129 560.653,175.36 626.807,175.36 626.807,162.129 644.448,188.591 "/>
      <polygon style="fill: none; fill-opacity:0; stroke-width: 0.2; stroke: #000000" points="547.422,188.591 560.653,162.129 560.653,175.36 626.807,175.36 626.807,162.129 644.448,188.591 "/>
      <text font-size="12.8" style="fill: #000000;text-anchor:middle;font-family:sans-serif;font-style:normal;font-weight:normal" x="595.935" y="205.001">
        <tspan x="595.935" y="205.001"></tspan>
      </text>
    </g>
    <g>
      <rect style="fill: #ffffff" x="683" y="72.3088" width="117.3" height="103.5"/>
      <ellipse style="fill: #ffffff" cx="741.65" cy="175.809" rx="58.65" ry="17.25"/>
      <ellipse style="fill: #ffffff" cx="741.65" cy="72.3088" rx="58.65" ry="17.25"/>
      <ellipse style="fill: none; fill-opacity:0; stroke-width: 2; stroke: #000000" cx="741.65" cy="72.3088" rx="58.65" ry="17.25"/>
      <path style="fill: none; fill-opacity:0; stroke-width: 2; stroke: #000000" d="M 800.3 72.3088 L 800.3,175.809 C 800.3,185.336 774.042,193.059 741.65,193.059 C 709.258,193.059 683,185.336 683,175.809 L 683,72.3088"/>
      <text font-size="12.8" style="fill: #000000;text-anchor:middle;font-family:sans-serif;font-style:normal;font-weight:normal" x="741.65" y="205.059">
        <tspan x="741.65" y="205.059"></tspan>
      </text>
    </g>
  </g>
  <g>
    <line style="fill: none; fill-opacity:0; stroke-width: 2; stroke: #000000" x1="168" y1="92" x2="533.268" y2="102.715"/>
    <polygon style="fill: #000000" points="540.765,102.934 530.623,107.639 533.268,102.715 530.916,97.6434 "/>
    <polygon style="fill: none; fill-opacity:0; stroke-width: 2; stroke: #000000" points="540.765,102.934 530.623,107.639 533.268,102.715 530.916,97.6434 "/>
  </g>
  <g>
    <line style="fill: none; fill-opacity:0; stroke-width: 2; stroke: #000000" x1="536" y1="121" x2="174.73" y2="133.659"/>
    <polygon style="fill: #000000" points="167.235,133.922 177.053,128.575 174.73,133.659 177.404,138.568 "/>
    <polygon style="fill: none; fill-opacity:0; stroke-width: 2; stroke: #000000" points="167.235,133.922 177.053,128.575 174.73,133.659 177.404,138.568 "/>
  </g>
  <g>
    <path style="fill: #ffffff" d="M 284.263 83.1417 C 269.545,82.6376 241,93.2234 245.014,115.907 C 249.028,138.591 268.207,143.632 276.235,137.079 C 284.263,130.526 263.746,168.837 302.995,178.918 C 342.244,189 362.314,172.869 356.516,161.275 C 350.718,149.681 390.859,188.496 409.592,166.316 C 428.324,144.136 390.413,122.965 398.441,125.989 C 406.469,129.014 431,124.981 422.972,87.1744 C 414.944,49.3677 342.69,78.6049 350.718,73.0599 C 358.746,67.5149 338.676,39.79 313.7,45.335 C 288.723,50.88 286.952,60.9421 284.275,83.122 L 284.263,83.1417z"/>
    <path style="fill: none; fill-opacity:0; stroke-width: 2; stroke: #000000" d="M 284.263 83.1417 C 269.545,82.6376 241,93.2234 245.014,115.907 C 249.028,138.591 268.207,143.632 276.235,137.079 C 284.263,130.526 263.746,168.837 302.995,178.918 C 342.244,189 362.314,172.869 356.516,161.275 C 350.718,149.681 390.859,188.496 409.592,166.316 C 428.324,144.136 390.413,122.965 398.441,125.989 C 406.469,129.014 431,124.981 422.972,87.1744 C 414.944,49.3677 342.69,78.6049 350.718,73.0599 C 358.746,67.5149 338.676,39.79 313.7,45.335 C 288.723,50.88 286.952,60.9421 284.275,83.122 L 284.263,83.1417"/>
    <text font-size="12.8" style="fill: #000000;text-anchor:middle;font-family:sans-serif;font-style:normal;font-weight:normal" x="341.093" y="121.025">
      <tspan x="341.093" y="121.025"></tspan>
    </text>
  </g>
  <g>
    <path style="fill: #ffffff" d="M 84 288 L 157,288 L 157,352.286 C 142.4,341.571 135.1,341.571 120.5,352.286 C 105.9,363 98.6,363 84,352.286 L 84,288z"/>
    <path style="fill: none; fill-opacity:0; stroke-width: 2; stroke: #000000" d="M 84 288 L 157,288 L 157,352.286 C 142.4,341.571 135.1,341.571 120.5,352.286 C 105.9,363 98.6,363 84,352.286 L 84,288"/>
    <text font-size="12.8" style="fill: #000000;text-anchor:middle;font-family:sans-serif;font-style:normal;font-weight:normal" x="120.5" y="318.786">
      <tspan x="120.5" y="318.786"></tspan>
    </text>
  </g>
  <g>
    <rect style="fill: #ffffff" x="239" y="280" width="92" height="103"/>
    <rect style="fill: none; fill-opacity:0; stroke-width: 2; stroke: #000000" x="239" y="280" width="92" height="103"/>
    <text font-size="12.8" style="fill: #000000;text-anchor:middle;font-family:sans-serif;font-style:normal;font-weight:normal" x="285" y="335.4">
      <tspan x="285" y="335.4"></tspan>
    </text>
  </g>
  <g>
    <path style="fill: #ffffff" d="M 728 319.167 C 747.4,305.542 757.1,301 776.5,301 C 795.9,301 805.6,305.542 825,319.167 L 825,391.833 C 805.6,405.458 795.9,410 776.5,410 C 757.1,410 747.4,405.458 728,391.833 L 728,319.167z"/>
    <path style="fill: none; fill-opacity:0; stroke-width: 2; stroke: #000000" d="M 728 319.167 C 747.4,305.542 757.1,301 776.5,301 C 795.9,301 805.6,305.542 825,319.167 L 825,391.833 C 805.6,405.458 795.9,410 776.5,410 C 757.1,410 747.4,405.458 728,391.833 L 728,319.167"/>
    <path style="fill: none; fill-opacity:0; stroke-width: 2; stroke: #000000" d="M 728 319.167 C 747.4,332.792 757.1,337.333 776.5,337.333 C 795.9,337.333 805.6,332.792 825,319.167"/>
    <text font-size="12.8" style="fill: #000000;text-anchor:middle;font-family:sans-serif;font-style:normal;font-weight:normal" x="776.5" y="368.583">
      <tspan x="776.5" y="368.583"></tspan>
    </text>
  </g>
  <g>
    <path style="fill: #ffffff" d="M 356 292 L 438,292 L 438,358 C 421.6,347 413.4,347 397,358 C 380.6,369 372.4,369 356,358 L 356,292z"/>
    <path style="fill: none; fill-opacity:0; stroke-width: 2; stroke: #000000" d="M 356 292 L 438,292 L 438,358 C 421.6,347 413.4,347 397,358 C 380.6,369 372.4,369 356,358 L 356,292"/>
    <text font-size="12.8" style="fill: #000000;text-anchor:middle;font-family:sans-serif;font-style:normal;font-weight:normal" x="397" y="323.5">
      <tspan x="397" y="323.5"></tspan>
    </text>
  </g>
  <g>
    <rect style="fill: #ffffff" x="465" y="285" width="89" height="119"/>
    <rect style="fill: none; fill-opacity:0; stroke-width: 2; stroke: #000000" x="465" y="285" width="89" height="119"/>
    <text font-size="12.8" style="fill: #000000;text-anchor:middle;font-family:sans-serif;font-style:normal;font-weight:normal" x="509.5" y="348.4">
      <tspan x="509.5" y="348.4"></tspan>
    </text>
  </g>
  <g>
    <rect style="fill: #ffffff" x="528.6" y="273.8" width="89" height="119"/>
    <rect style="fill: none; fill-opacity:0; stroke-width: 2; stroke: #000000" x="528.6" y="273.8" width="89" height="119"/>
    <text font-size="12.8" style="fill: #000000;text-anchor:middle;font-family:sans-serif;font-style:normal;font-weight:normal" x="573.1" y="337.2">
      <tspan x="573.1" y="337.2"> </tspan>
    </text>
  </g>
  <g>
    <rect style="fill: #ffffff" x="602.2" y="285.6" width="89" height="119"/>
    <rect style="fill: none; fill-opacity:0; stroke-width: 2; stroke: #000000" x="602.2" y="285.6" width="89" height="119"/>
    <text font-size="12.8" style="fill: #000000;text-anchor:middle;font-family:sans-serif;font-style:normal;font-weight:normal" x="646.7" y="349">
      <tspan x="646.7" y="349"></tspan>
    </text>
  </g>
</svg>
