<?xml version="1.0" encoding="UTF-8" standalone="no"?>
<!DOCTYPE svg PUBLIC "-//W3C//DTD SVG 1.0//EN" "http://www.w3.org/TR/2001/PR-SVG-20010719/DTD/svg10.dtd">
<svg width="15cm" height="24cm" viewBox="19 19 282 461" xmlns="http://www.w3.org/2000/svg" xmlns:xlink="http://www.w3.org/1999/xlink">
  <g>
    <rect style="fill: #ffffff" x="120" y="20" width="180" height="40"/>
    <rect style="fill: none; fill-opacity:0; stroke-width: 2; stroke: #000000" x="120" y="20" width="180" height="40"/>
    <text font-size="12.8" style="fill: #000000;text-anchor:middle;font-family:sans-serif;font-style:normal;font-weight:normal" x="210" y="43.9">
      <tspan x="210" y="43.9">Authenticate</tspan>
    </text>
  </g>
  <g>
    <path style="fill: #ffffff" d="M 20 440 L 80,440 L 80,474.286 C 68,468.571 62,468.571 50,474.286 C 38,480 32,480 20,474.286 L 20,440z"/>
    <path style="fill: none; fill-opacity:0; stroke-width: 2; stroke: #000000" d="M 20 440 L 80,440 L 80,474.286 C 68,468.571 62,468.571 50,474.286 C 38,480 32,480 20,474.286 L 20,440"/>
    <text font-size="12.8" style="fill: #000000;text-anchor:middle;font-family:sans-serif;font-style:normal;font-weight:normal" x="50" y="458.286">
      <tspan x="50" y="458.286">Output</tspan>
    </text>
  </g>
  <g>
    <path style="fill: #ffffff" d="M 20 80 L 80,80 L 80,114.286 C 68,108.571 62,108.571 50,114.286 C 38,120 32,120 20,114.286 L 20,80z"/>
    <path style="fill: none; fill-opacity:0; stroke-width: 2; stroke: #000000" d="M 20 80 L 80,80 L 80,114.286 C 68,108.571 62,108.571 50,114.286 C 38,120 32,120 20,114.286 L 20,80"/>
    <text font-size="12.8" style="fill: #000000;text-anchor:middle;font-family:sans-serif;font-style:normal;font-weight:normal" x="50" y="98.2857">
      <tspan x="50" y="98.2857">Input</tspan>
    </text>
  </g>
  <g>
    <polygon style="fill: #ffffff" points="134.559,80 300,80 285.441,120 120,120 "/>
    <polygon style="fill: none; fill-opacity:0; stroke-width: 2; stroke: #000000" points="134.559,80 300,80 285.441,120 120,120 "/>
    <text font-size="12.8" style="fill: #000000;text-anchor:middle;font-family:sans-serif;font-style:normal;font-weight:normal" x="210" y="103.9">
      <tspan x="210" y="103.9">Read header</tspan>
    </text>
  </g>
  <g>
    <polygon style="fill: #ffffff" points="133.831,440 300,440 286.169,478 120,478 "/>
    <polygon style="fill: none; fill-opacity:0; stroke-width: 2; stroke: #000000" points="133.831,440 300,440 286.169,478 120,478 "/>
    <text font-size="12.8" style="fill: #000000;text-anchor:middle;font-family:sans-serif;font-style:normal;font-weight:normal" x="210" y="462.9">
      <tspan x="210" y="462.9">Return answer</tspan>
    </text>
  </g>
  <text font-size="12.8" style="fill: #000000;text-anchor:start;font-family:sans-serif;font-style:normal;font-weight:normal" x="200" y="159">
    <tspan x="200" y="159"></tspan>
  </text>
  <g>
    <rect style="fill: #ffffff" x="120" y="140" width="180" height="40"/>
    <rect style="fill: none; fill-opacity:0; stroke-width: 2; stroke: #000000" x="120" y="140" width="180" height="40"/>
    <text font-size="12.8" style="fill: #000000;text-anchor:middle;font-family:sans-serif;font-style:normal;font-weight:normal" x="210" y="163.9">
      <tspan x="210" y="163.9">Get command handler</tspan>
    </text>
  </g>
  <g>
    <polygon style="fill: #ffffff" points="134.559,200 300,200 285.441,240 120,240 "/>
    <polygon style="fill: none; fill-opacity:0; stroke-width: 2; stroke: #000000" points="134.559,200 300,200 285.441,240 120,240 "/>
    <text font-size="12.8" style="fill: #000000;text-anchor:middle;font-family:sans-serif;font-style:normal;font-weight:normal" x="210" y="223.9">
      <tspan x="210" y="223.9">Get full data</tspan>
    </text>
  </g>
  <g>
    <rect style="fill: #ffffff" x="120" y="260" width="180" height="40"/>
    <rect style="fill: none; fill-opacity:0; stroke-width: 2; stroke: #000000" x="120" y="260" width="180" height="40"/>
    <text font-size="12.8" style="fill: #000000;text-anchor:middle;font-family:sans-serif;font-style:normal;font-weight:normal" x="210" y="283.9">
      <tspan x="210" y="283.9">Data changes</tspan>
    </text>
  </g>
  <g>
    <path style="fill: #ffffff" d="M 180 327.333 C 192,321.833 198,320 210,320 C 222,320 228,321.833 240,327.333 L 240,356.667 C 228,362.167 222,364 210,364 C 198,364 192,362.167 180,356.667 L 180,327.333z"/>
    <path style="fill: none; fill-opacity:0; stroke-width: 2; stroke: #000000" d="M 180 327.333 C 192,321.833 198,320 210,320 C 222,320 228,321.833 240,327.333 L 240,356.667 C 228,362.167 222,364 210,364 C 198,364 192,362.167 180,356.667 L 180,327.333"/>
    <path style="fill: none; fill-opacity:0; stroke-width: 2; stroke: #000000" d="M 180 327.333 C 192,332.833 198,334.667 210,334.667 C 222,334.667 228,332.833 240,327.333"/>
    <text font-size="12.8" style="fill: #000000;text-anchor:middle;font-family:sans-serif;font-style:normal;font-weight:normal" x="210" y="349.667">
      <tspan x="210" y="349.667">DB ops</tspan>
    </text>
  </g>
  <g>
    <rect style="fill: #ffffff" x="120" y="380" width="180" height="40"/>
    <rect style="fill: none; fill-opacity:0; stroke-width: 2; stroke: #000000" x="120" y="380" width="180" height="40"/>
    <text font-size="12.8" style="fill: #000000;text-anchor:middle;font-family:sans-serif;font-style:normal;font-weight:normal" x="210" y="403.9">
      <tspan x="210" y="403.9">Data changes</tspan>
    </text>
  </g>
</svg>
